0
SECTION
2
HEADER
9
$INSUNITS
70
4
9
$ACADVER
1
AC1014
9
$HANDSEED
5
FFFF
0
ENDSEC
0
SECTION
2
TABLES
0
TABLE
2
VPORT
5
8
100
AcDbSymbolTable
0
ENDTAB
0
TABLE
2
LTYPE
5
5
100
AcDbSymbolTable
0
LTYPE
5
14
100
AcDbSymbolTableRecord
100
AcDbLinetypeTableRecord
2
BYBLOCK
70
0
0
LTYPE
5
15
100
AcDbSymbolTableRecord
100
AcDbLinetypeTableRecord
2
BYLAYER
70
0
0
ENDTAB
0
TABLE
2
LAYER
5
2
100
AcDbSymbolTable
70
2
0
LAYER
5
50
100
AcDbSymbolTableRecord
100
AcDbLayerTableRecord
2
0
70
0
6
CONTINUOUS
0
ENDTAB
0
TABLE
2
STYLE
5
3
100
AcDbSymbolTable
70
1
0
STYLE
5
11
100
AcDbSymbolTableRecord
100
AcDbTextStyleTableRecord
2
STANDARD
70
0
0
ENDTAB
0
TABLE
2
VIEW
5
6
100
AcDbSymbolTable
70
0
0
ENDTAB
0
TABLE
2
UCS
5
7
100
AcDbSymbolTable
70
0
0
ENDTAB
0
TABLE
2
APPID
5
9
100
AcDbSymbolTable
70
2
0
APPID
5
12
100
AcDbSymbolTableRecord
100
AcDbRegAppTableRecord
2
ACAD
70
0
0
ENDTAB
0
TABLE
2
DIMSTYLE
5
A
100
AcDbSymbolTable
70
1
0
ENDTAB
0
TABLE
2
BLOCK_RECORD
5
1
100
AcDbSymbolTable
70
1
0
BLOCK_RECORD
5
1F
100
AcDbSymbolTableRecord
100
AcDbBlockTableRecord
2
*MODEL_SPACE
0
BLOCK_RECORD
5
1B
100
AcDbSymbolTableRecord
100
AcDbBlockTableRecord
2
*PAPER_SPACE
0
ENDTAB
0
ENDSEC
0
SECTION
2
BLOCKS
0
BLOCK
5
20
100
AcDbEntity
100
AcDbBlockBegin
2
*MODEL_SPACE
0
ENDBLK
5
21
100
AcDbEntity
100
AcDbBlockEnd
0
BLOCK
5
1C
100
AcDbEntity
100
AcDbBlockBegin
2
*PAPER_SPACE
0
ENDBLK
5
1D
100
AcDbEntity
100
AcDbBlockEnd
0
ENDSEC
0
SECTION
2
ENTITIES
0
CIRCLE
5
100
100
AcDbEntity
8
0
100
AcDbCircle
10
-76.066336942078891
20
79.246336168456835
30
0
40
1.0000000000000004
210
0
220
-0
230
1
0
CIRCLE
5
101
100
AcDbEntity
8
0
100
AcDbCircle
10
-76.066336942078891
20
-2.8156638315431741
30
0
40
1.0000000000000004
210
0
220
-0
230
1
0
CIRCLE
5
102
100
AcDbEntity
8
0
100
AcDbCircle
10
44.09566305792108
20
-2.8156638315431719
30
0
40
1.0000000000000004
210
0
220
-0
230
1
0
CIRCLE
5
103
100
AcDbEntity
8
0
100
AcDbCircle
10
44.09566305792108
20
79.24633616845685
30
0
40
1.0000000000000004
210
0
220
-0
230
1
0
CIRCLE
5
104
100
AcDbEntity
8
0
100
AcDbCircle
10
44.09566305792108
20
38.215336168456837
30
0
40
1.0000000000000004
210
0
220
-0
230
1
0
CIRCLE
5
105
100
AcDbEntity
8
0
100
AcDbCircle
10
-15.985336942078931
20
-2.8156638315431719
30
0
40
1.0000000000000004
210
0
220
-0
230
1
0
CIRCLE
5
106
100
AcDbEntity
8
0
100
AcDbCircle
10
-76.066336942078891
20
38.21533616845683
30
0
40
1.0000000000000004
210
0
220
-0
230
1
0
CIRCLE
5
107
100
AcDbEntity
8
0
100
AcDbCircle
10
-15.985336942078927
20
79.24633616845685
30
0
40
1.0000000000000004
210
0
220
-0
230
1
0
LWPOLYLINE
5
108
100
AcDbEntity
8
0
100
AcDbPolyline
90
8
70
1
43
0.0
10
38.639663057921069
20
3.1403361684568294
42
-0.41421356237309537
10
38.139663057921069
20
2.6403361684568294
10
25.139663057921059
20
2.6403361684568298
42
-0.41421356237309537
10
24.639663057921059
20
3.1403361684568276
10
24.639663057921062
20
16.140336168456827
42
-0.4142135623730937
10
25.139663057921059
20
16.640336168456827
10
38.139663057921069
20
16.64033616845683
42
-0.41421356237309243
10
38.639663057921069
20
16.140336168456827
0
LWPOLYLINE
5
109
100
AcDbEntity
8
0
100
AcDbPolyline
90
8
70
1
43
0.0
10
-37.560336942078926
20
41.240336168456821
42
-0.41421356237309509
10
-38.060336942078919
20
40.740336168456821
10
-51.060336942078933
20
40.740336168456814
42
-0.41421356237311063
10
-51.560336942078948
20
41.240336168456821
10
-51.560336942078933
20
54.240336168456828
42
-0.41421356237309509
10
-51.060336942078941
20
54.740336168456821
10
-38.060336942078933
20
54.740336168456821
42
-0.4142135623731002
10
-37.560336942078926
20
54.240336168456828
0
LWPOLYLINE
5
110
100
AcDbEntity
8
0
100
AcDbPolyline
90
8
70
1
43
0.0
10
-56.610336942078938
20
22.190336168456831
10
-56.610336942078938
20
35.190336168456831
42
0.41421356237309243
10
-57.110336942078931
20
35.690336168456824
10
-70.110336942078931
20
35.690336168456824
42
0.4142135623730977
10
-70.610336942078945
20
35.190336168456831
10
-70.610336942078931
20
22.19033616845682
42
0.4142135623730977
10
-70.110336942078931
20
21.690336168456824
10
-57.110336942078945
20
21.690336168456831
42
0.41421356237309509
0
LWPOLYLINE
5
111
100
AcDbEntity
8
0
100
AcDbPolyline
90
8
70
1
43
0.0
10
-18.510336942078943
20
60.290336168456832
42
-0.41421356237309509
10
-19.01033694207894
20
59.790336168456832
10
-32.010336942078929
20
59.790336168456832
42
-0.4142135623730977
10
-32.510336942078929
20
60.290336168456832
10
-32.510336942078929
20
73.290336168456818
42
-0.41421356237309509
10
-32.010336942078929
20
73.790336168456818
10
-19.010336942078943
20
73.790336168456832
42
-0.41421356237309637
10
-18.510336942078943
20
73.290336168456832
0
LWPOLYLINE
5
112
100
AcDbEntity
8
0
100
AcDbPolyline
90
8
70
1
43
0.0
10
19.589663057921062
20
60.290336168456832
42
-0.41421356237309509
10
19.089663057921062
20
59.790336168456832
10
6.0896630579210598
20
59.790336168456832
42
-0.41421356237309309
10
5.5896630579210651
20
60.290336168456832
10
5.5896630579210669
20
73.290336168456832
42
-0.4142135623730937
10
6.0896630579210642
20
73.790336168456832
10
19.089663057921065
20
73.790336168456832
42
-0.41421356237309243
10
19.589663057921062
20
73.290336168456832
0
LWPOLYLINE
5
113
100
AcDbEntity
8
0
100
AcDbPolyline
90
8
70
1
43
0.0
10
-56.610336942078945
20
60.290336168456832
42
-0.41421356237309509
10
-57.110336942078945
20
59.790336168456832
10
-70.110336942078931
20
59.790336168456832
42
-0.41421356237311063
10
-70.610336942078931
20
60.290336168456832
10
-70.610336942078916
20
73.290336168456818
42
-0.41421356237309509
10
-70.110336942078931
20
73.790336168456818
10
-57.110336942078931
20
73.790336168456832
42
-0.4142135623731002
10
-56.610336942078938
20
73.290336168456818
0
LWPOLYLINE
5
114
100
AcDbEntity
8
0
100
AcDbPolyline
90
8
70
1
43
0.0
10
-51.060336942078948
20
21.690336168456817
42
-0.41421356237309243
10
-51.560336942078948
20
22.190336168456831
10
-51.560336942078933
20
35.190336168456831
42
-0.41421356237309509
10
-51.060336942078941
20
35.690336168456824
10
-38.060336942078933
20
35.690336168456824
42
-0.4142135623731002
10
-37.560336942078926
20
35.190336168456831
10
-37.560336942078919
20
22.190336168456831
42
-0.41421356237309509
10
-38.060336942078919
20
21.690336168456831
0
LWPOLYLINE
5
115
100
AcDbEntity
8
0
100
AcDbPolyline
90
8
70
1
43
0.0
10
-56.610336942078938
20
41.240336168456821
10
-56.610336942078938
20
54.240336168456828
42
0.4142135623731002
10
-57.110336942078931
20
54.740336168456835
10
-70.110336942078931
20
54.740336168456821
42
0.41421356237309509
10
-70.610336942078945
20
54.240336168456828
10
-70.610336942078931
20
41.240336168456821
42
0.41421356237311063
10
-70.110336942078931
20
40.740336168456828
10
-57.110336942078945
20
40.740336168456821
42
0.41421356237309509
0
LWPOLYLINE
5
116
100
AcDbEntity
8
0
100
AcDbPolyline
90
8
70
1
43
0.0
10
25.139663057921059
20
40.740336168456835
42
-0.41421356237309509
10
24.639663057921059
20
41.240336168456835
10
24.639663057921059
20
54.240336168456842
42
-0.41421356237309509
10
25.139663057921059
20
54.740336168456842
10
38.139663057921062
20
54.740336168456842
42
-0.41421356237309243
10
38.639663057921055
20
54.240336168456842
10
38.639663057921055
20
41.240336168456835
42
-0.41421356237309509
10
38.139663057921062
20
40.740336168456835
0
LWPOLYLINE
5
117
100
AcDbEntity
8
0
100
AcDbPolyline
90
8
70
1
43
0.0
10
-18.510336942078943
20
41.240336168456835
42
-0.41421356237309509
10
-19.01033694207894
20
40.740336168456835
10
-32.010336942078929
20
40.740336168456821
42
-0.4142135623730977
10
-32.510336942078929
20
41.240336168456821
10
-32.510336942078929
20
54.240336168456828
42
-0.41421356237309509
10
-32.010336942078929
20
54.740336168456821
10
-19.010336942078943
20
54.740336168456842
42
-0.41421356237309637
10
-18.510336942078943
20
54.240336168456842
0
LWPOLYLINE
5
118
100
AcDbEntity
8
0
100
AcDbPolyline
90
8
70
1
43
0.0
10
0.53966305792106706
20
60.290336168456832
42
-0.41421356237309437
10
0.039663057921068834
20
59.790336168456832
10
-12.96033694207895
20
59.790336168456832
42
-0.41421356237309637
10
-13.46033694207895
20
60.290336168456832
10
-13.46033694207895
20
73.290336168456832
42
-0.41421356237309509
10
-12.960336942078952
20
73.790336168456832
10
0.039663057921066544
20
73.790336168456832
42
-0.41421356237309698
10
0.53966305792106939
20
73.290336168456832
0
LWPOLYLINE
5
119
100
AcDbEntity
8
0
100
AcDbPolyline
90
8
70
1
43
0.0
10
38.639663057921055
20
60.290336168456832
42
-0.41421356237309509
10
38.139663057921062
20
59.790336168456832
10
25.139663057921055
20
59.790336168456832
42
-0.41421356237309243
10
24.639663057921059
20
60.290336168456832
10
24.639663057921059
20
73.290336168456832
42
-0.41421356237309509
10
25.139663057921059
20
73.790336168456832
10
38.139663057921062
20
73.790336168456832
42
-0.41421356237309243
10
38.639663057921055
20
73.290336168456832
0
LWPOLYLINE
5
120
100
AcDbEntity
8
0
100
AcDbPolyline
90
8
70
1
43
0.0
10
19.589663057921051
20
41.240336168456835
10
19.589663057921051
20
54.240336168456842
42
0.41421356237309243
10
19.089663057921065
20
54.740336168456835
10
6.0896630579210633
20
54.740336168456842
42
0.4142135623730937
10
5.5896630579210651
20
54.240336168456842
10
5.5896630579210651
20
41.240336168456835
42
0.41421356237309309
10
6.0896630579210598
20
40.740336168456828
10
19.089663057921062
20
40.740336168456835
42
0.41421356237309509
0
LWPOLYLINE
5
121
100
AcDbEntity
8
0
100
AcDbPolyline
90
8
70
1
43
0.0
10
0.53966305792106906
20
3.1403361684568298
10
0.53966305792106917
20
16.140336168456827
42
0.41421356237309637
10
0.039663057921068834
20
16.640336168456827
10
-12.960336942078941
20
16.640336168456827
42
0.41421356237309509
10
-13.460336942078936
20
16.140336168456827
10
-13.460336942078939
20
3.1403361684568294
42
0.41421356237309537
10
-12.960336942078941
20
2.6403361684568258
10
0.039663057921069916
20
2.6403361684568294
42
0.4142135623730952
0
LWPOLYLINE
5
122
100
AcDbEntity
8
0
100
AcDbPolyline
90
8
70
1
43
0.0
10
19.589663057921062
20
3.1403361684568285
42
-0.4142135623730947
10
19.089663057921062
20
2.6403361684568289
10
6.0896630579210598
20
2.6403361684568316
42
-0.41421356237309409
10
5.5896630579210651
20
3.1403361684568298
10
5.5896630579210633
20
16.140336168456827
42
-0.41421356237309959
10
6.0896630579210642
20
16.640336168456827
10
19.089663057921065
20
16.640336168456827
42
-0.41421356237309509
10
19.589663057921062
20
16.140336168456827
0
LWPOLYLINE
5
123
100
AcDbEntity
8
0
100
AcDbPolyline
90
8
70
1
43
0.0
10
-37.560336942078926
20
60.290336168456832
42
-0.41421356237309509
10
-38.060336942078919
20
59.790336168456832
10
-51.060336942078933
20
59.790336168456825
42
-0.41421356237311063
10
-51.560336942078948
20
60.290336168456832
10
-51.560336942078933
20
73.290336168456818
42
-0.41421356237309509
10
-51.060336942078941
20
73.790336168456818
10
-38.060336942078933
20
73.790336168456818
42
-0.4142135623731002
10
-37.560336942078926
20
73.290336168456818
0
LWPOLYLINE
5
124
100
AcDbEntity
8
0
100
AcDbPolyline
90
8
70
1
43
0.0
10
6.0896630579210633
20
21.690336168456838
42
-0.41421356237309637
10
5.5896630579210651
20
22.190336168456831
10
5.589663057921066
20
35.190336168456831
42
-0.41421356237309437
10
6.0896630579210642
20
35.690336168456824
10
19.089663057921065
20
35.690336168456831
42
-0.4142135623730937
10
19.589663057921062
20
35.190336168456838
10
19.589663057921062
20
22.190336168456835
42
-0.41421356237309637
10
19.089663057921062
20
21.690336168456831
0
LWPOLYLINE
5
125
100
AcDbEntity
8
0
100
AcDbPolyline
90
8
70
1
43
0.0
10
38.639663057921055
20
22.190336168456831
42
-0.41421356237309509
10
38.139663057921062
20
21.690336168456831
10
25.139663057921055
20
21.690336168456827
42
-0.4142135623731002
10
24.639663057921059
20
22.190336168456831
10
24.639663057921059
20
35.190336168456838
42
-0.41421356237309509
10
25.139663057921059
20
35.690336168456838
10
38.139663057921062
20
35.690336168456838
42
-0.41421356237309243
10
38.639663057921055
20
35.190336168456838
0
LWPOLYLINE
5
126
100
AcDbEntity
8
0
100
AcDbPolyline
90
8
70
1
43
0.0
10
-18.51033694207894
20
3.1403361684568285
42
-0.41421356237309409
10
-19.01033694207894
20
2.6403361684568289
10
-32.010336942078929
20
2.6403361684568285
42
-0.4142135623730957
10
-32.510336942078922
20
3.1403361684568276
10
-32.510336942078922
20
16.140336168456827
42
-0.4142135623730937
10
-32.010336942078929
20
16.640336168456827
10
-19.010336942078936
20
16.640336168456823
42
-0.41421356237309637
10
-18.510336942078943
20
16.140336168456827
0
LWPOLYLINE
5
127
100
AcDbEntity
8
0
100
AcDbPolyline
90
8
70
1
43
0.0
10
-18.51033694207894
20
22.190336168456824
42
-0.4142135623730937
10
-19.01033694207894
20
21.690336168456831
10
-32.010336942078929
20
21.690336168456831
42
-0.41421356237309509
10
-32.510336942078922
20
22.190336168456831
10
-32.510336942078922
20
35.190336168456831
42
-0.41421356237309509
10
-32.010336942078929
20
35.690336168456824
10
-19.01033694207894
20
35.690336168456824
42
-0.41421356237309637
10
-18.510336942078943
20
35.190336168456831
0
LWPOLYLINE
5
128
100
AcDbEntity
8
0
100
AcDbPolyline
90
8
70
1
43
0.0
10
0.53966305792106706
20
41.240336168456835
42
-0.41421356237309437
10
0.039663057921068834
20
40.740336168456835
10
-12.96033694207895
20
40.740336168456835
42
-0.41421356237309637
10
-13.46033694207895
20
41.240336168456835
10
-13.46033694207895
20
54.240336168456842
42
-0.41421356237309509
10
-12.960336942078952
20
54.740336168456842
10
0.039663057921066544
20
54.740336168456842
42
-0.41421356237309637
10
0.53966305792106828
20
54.240336168456842
0
LWPOLYLINE
5
129
100
AcDbEntity
8
0
100
AcDbPolyline
90
8
70
1
43
0.0
10
0.53966305792106928
20
22.190336168456831
42
-0.4142135623730957
10
0.039663057921068834
20
21.690336168456831
10
-12.960336942078941
20
21.690336168456838
42
-0.41421356237309637
10
-13.460336942078939
20
22.190336168456831
10
-13.460336942078941
20
35.190336168456824
42
-0.41421356237309637
10
-12.960336942078941
20
35.690336168456824
10
0.039663057921068764
20
35.690336168456824
42
-0.41421356237309637
10
0.53966305792106828
20
35.190336168456831
0
LWPOLYLINE
5
130
100
AcDbEntity
8
0
100
AcDbPolyline
90
8
70
1
43
0.0
10
-37.560336942078919
20
3.1403361684568276
42
-0.41421356237309537
10
-38.060336942078919
20
2.6403361684568276
10
-51.060336942078933
20
2.6403361684568156
42
-0.41421356237310319
10
-51.560336942078948
20
3.1403361684568276
10
-51.560336942078933
20
16.140336168456827
42
-0.4142135623730937
10
-51.060336942078941
20
16.640336168456827
10
-38.060336942078933
20
16.640336168456827
42
-0.41421356237310414
10
-37.560336942078919
20
16.140336168456827
0
LWPOLYLINE
5
131
100
AcDbEntity
8
0
100
AcDbPolyline
90
8
70
1
43
0.0
10
-56.610336942078945
20
3.1403361684568276
42
-0.41421356237309409
10
-57.110336942078945
20
2.6403361684568276
10
-70.110336942078931
20
2.6403361684568241
42
-0.41421356237309792
10
-70.610336942078931
20
3.1403361684568276
10
-70.610336942078916
20
16.140336168456827
42
-0.41421356237309637
10
-70.110336942078931
20
16.640336168456827
10
-57.110336942078931
20
16.640336168456841
42
-0.4142135623730937
10
-56.610336942078938
20
16.140336168456827
0
SPLINE
5
132
100
AcDbEntity
8
0
100
AcDbSpline
70
0
71
3
72
14
73
10
74
0
42
0.000000001
43
0.0000000001
44
0.0000000001
40
0
40
0
40
0
40
0
40
0.14004901821948737
40
0.14004901821948737
40
0.28180181854945541
40
0.28180181854945541
40
0.41808038668349023
40
0.41808038668349023
40
0.55713952963874425
40
0.55713952963874425
40
0.55713952963874425
40
0.55713952963874425
10
43.629129151988323
20
82.315336168456838
30
2.7755575615628914e-16
10
44.09595921271994
20
82.315336168456838
30
0
10
44.558199854977481
20
82.222876170306193
30
0
10
45.425264531694623
20
81.861548969976525
30
2.7755575615628914e-16
10
45.820588580069085
20
81.594188633689669
30
0
10
46.469953984913381
20
80.932955331113732
30
0
10
46.722817235260379
20
80.550521865273552
30
0
10
47.073505466856787
20
79.702370582072064
30
0
10
47.164663057921068
20
79.24333273904162
30
0
10
47.164663057921068
20
78.7798022625241
30
0
0
LINE
5
133
100
AcDbEntity
8
0
100
AcDbLine
10
43.629129151988323
20
82.315336168456838
30
2.7755575615628914e-16
11
-75.599803036146199
21
82.315336168456838
31
2.7755549145849312e-16
0
SPLINE
5
134
100
AcDbEntity
8
0
100
AcDbSpline
70
0
71
3
72
14
73
10
74
0
42
0.000000001
43
0.0000000001
44
0.0000000001
40
0
40
0
40
0
40
0
40
0.14004901821948709
40
0.14004901821948709
40
0.28180181854945302
40
0.28180181854945302
40
0.41808038668348829
40
0.41808038668348829
40
0.55713952963874058
40
0.55713952963874058
40
0.55713952963874058
40
0.55713952963874058
10
-79.135336942078879
20
78.779802262524086
30
0
10
-79.135336942078879
20
79.246632323255724
30
0
10
-79.042876943928277
20
79.708872965513237
30
0
10
-78.681549743598595
20
80.575937642230357
30
0
10
-78.414189407311753
20
80.971261690604848
30
0
10
-77.75295610473583
20
81.620627095449123
30
0
10
-77.370522638895636
20
81.873490345796142
30
0
10
-76.52237135569419
20
82.224178577392564
30
0
10
-76.063333512663718
20
82.315336168456838
30
0
10
-75.599803036146227
20
82.315336168456838
30
0
0
LINE
5
135
100
AcDbEntity
8
0
100
AcDbLine
10
-79.135336942078879
20
78.779802262524086
30
0
11
-79.135336942078879
21
-2.3491299256104359
31
-2.1510504838179445e-30
0
SPLINE
5
136
100
AcDbEntity
8
0
100
AcDbSpline
70
0
71
3
72
14
73
10
74
0
42
0.000000001
43
0.0000000001
44
0.0000000001
40
0
40
0
40
0
40
0
40
0.14004901821948762
40
0.14004901821948762
40
0.28180181854944991
40
0.28180181854944991
40
0.41808038668348624
40
0.41808038668348624
40
0.5571395296387448
40
0.5571395296387448
40
0.5571395296387448
40
0.5571395296387448
10
-75.59980303614617
20
-5.8846638315431719
30
0
10
-76.066633096877808
20
-5.8846638315431719
30
0
10
-76.528873739135335
20
-5.792203833392545
30
0
10
-77.39593841585247
20
-5.4308766330628764
30
0
10
-77.791262464226918
20
-5.1635162967760326
30
0
10
-78.440627869071221
20
-4.5022829942001295
30
0
10
-78.693491119418226
20
-4.1198495283599321
30
0
10
-79.044179351014662
20
-3.2716982451584418
30
0
10
-79.135336942078879
20
-2.8126604021279675
30
0
10
-79.135336942078879
20
-2.3491299256104408
30
0
0
LINE
5
137
100
AcDbEntity
8
0
100
AcDbLine
10
-75.59980303614617
20
-5.8846638315431719
30
0
11
43.629129151988344
21
-5.8846638315431683
31
0
0
SPLINE
5
138
100
AcDbEntity
8
0
100
AcDbSpline
70
0
71
3
72
14
73
10
74
0
42
0.000000001
43
0.0000000001
44
0.0000000001
40
0
40
0
40
0
40
0
40
0.1400490182194854
40
0.1400490182194854
40
0.28180181854944836
40
0.28180181854944836
40
0.41808038668348502
40
0.41808038668348502
40
0.55713952963874491
40
0.55713952963874491
40
0.55713952963874491
40
0.55713952963874491
10
47.164663057921061
20
-2.3491299256104377
30
0
10
47.164663057921061
20
-2.8159599863420515
30
0
10
47.07220305977043
20
-3.2782006285995657
30
2.7755575615628914e-16
10
46.710875859440776
20
-4.1452653053166806
30
0
10
46.443515523153927
20
-4.5405893536911552
30
0
10
45.782282220578018
20
-5.189954758535464
30
0
10
45.399848754737839
20
-5.4428180088824636
30
0
10
44.551697471536336
20
-5.7935062404789157
30
0
10
44.092659628505842
20
-5.8846638315431683
30
0
10
43.629129151988309
20
-5.8846638315431683
30
2.7755575615628914e-16
0
LINE
5
139
100
AcDbEntity
8
0
100
AcDbLine
10
47.164663057921061
20
-2.3491299256104377
30
0
11
47.164663057921068
21
78.7798022625241
31
0
0
ENDSEC
0
SECTION
2
OBJECTS
0
DICTIONARY
5
C
100
AcDbDictionary
3
ACAD_GROUP
350
D
3
ACAD_MLINESTYLE
350
17
0
DICTIONARY
5
D
100
AcDbDictionary
0
DICTIONARY
5
1A
330
C
100
AcDbDictionary
0
DICTIONARY
5
17
100
AcDbDictionary
0
ENDSEC
0
EOF
